{
    "asset" : {
        "generator" : "Khronos glTF Blender I/O v1.5.17",
        "version" : "2.0"
    },
    "scene" : 0,
    "scenes" : [
        {
            "name" : "Scene",
            "nodes" : [
                0,
                1,
                2,
                3,
                4,
                5,
                6,
                7,
                8
            ]
        }
    ],
    "nodes" : [
        {
            "mesh" : 0,
            "name" : "Cube",
            "scale" : [
                1.0800317525863647,
                0.36722397804260254,
                1.0800317525863647
            ]
        },
        {
            "name" : "Light",
            "rotation" : [
                0.16907575726509094,
                0.7558803558349609,
                -0.27217137813568115,
                0.570947527885437
            ],
            "translation" : [
                5.9828877449035645,
                6.265630722045898,
                5.255774021148682
            ]
        },
        {
            "mesh" : 1,
            "name" : "Plane",
            "scale" : [
                0.9205234050750732,
                0.9205234050750732,
                0.9205234050750732
            ],
            "translation" : [
                0,
                0.36105915904045105,
                0
            ]
        },
        {
            "mesh" : 2,
            "name" : "Plane.001",
            "scale" : [
                0.9205234050750732,
                0.9205234050750732,
                0.9205234050750732
            ],
            "translation" : [
                0,
                0.36105915904045105,
                -2.8935415744781494
            ]
        },
        {
            "mesh" : 3,
            "name" : "Plane.002",
            "scale" : [
                1.110230565071106,
                0.9205234050750732,
                0.9205234050750732
            ],
            "translation" : [
                -2.9642844200134277,
                0.36105915904045105,
                0.289084792137146
            ]
        },
        {
            "name" : "GameIsoCam",
            "rotation" : [
                0.4619399905204773,
                0.33141347765922546,
                -0.19134175777435303,
                0.8001030683517456
            ],
            "translation" : [
                29.865867614746094,
                26.81934356689453,
                29.865867614746094
            ]
        },
        {
            "mesh" : 4,
            "name" : "Plane.003",
            "scale" : [
                4.220091342926025,
                4.220091342926025,
                4.220091342926025
            ],
            "translation" : [
                0,
                -0.37216559052467346,
                0
            ]
        },
        {
            "name" : "Light.001",
            "rotation" : [
                0.16907575726509094,
                0.7558803558349609,
                -0.27217137813568115,
                0.570947527885437
            ],
            "translation" : [
                0.6027297973632812,
                8.59091567993164,
                1.3800747394561768
            ]
        },
        {
            "name" : "Light.002",
            "rotation" : [
                0.16907575726509094,
                0.7558803558349609,
                -0.27217137813568115,
                0.570947527885437
            ],
            "translation" : [
                -6.763020038604736,
                8.03925609588623,
                -1.498075008392334
            ]
        }
    ],
    "materials" : [
        {
            "doubleSided" : true,
            "name" : "Material",
            "pbrMetallicRoughness" : {
                "baseColorFactor" : [
                    0.018101368099451065,
                    0.02090381272137165,
                    0.8000000715255737,
                    1
                ],
                "metallicFactor" : 0,
                "roughnessFactor" : 0.4000000059604645
            }
        },
        {
            "doubleSided" : true,
            "emissiveFactor" : [
                1,
                1,
                1
            ],
            "name" : "Light",
            "pbrMetallicRoughness" : {}
        },
        {
            "doubleSided" : true,
            "name" : "Material.001",
            "pbrMetallicRoughness" : {
                "baseColorFactor" : [
                    0.14050069451332092,
                    0.13938838243484497,
                    0.8000000715255737,
                    1
                ],
                "roughnessFactor" : 0.5
            }
        }
    ],
    "meshes" : [
        {
            "name" : "Cube",
            "primitives" : [
                {
                    "attributes" : {
                        "POSITION" : 0,
                        "NORMAL" : 1,
                        "TEXCOORD_0" : 2
                    },
                    "indices" : 3,
                    "material" : 0
                },
                {
                    "attributes" : {
                        "POSITION" : 4,
                        "NORMAL" : 5,
                        "TEXCOORD_0" : 6
                    },
                    "indices" : 7,
                    "material" : 1
                }
            ]
        },
        {
            "name" : "Plane",
            "primitives" : [
                {
                    "attributes" : {
                        "POSITION" : 8,
                        "NORMAL" : 9,
                        "TEXCOORD_0" : 10
                    },
                    "indices" : 11,
                    "material" : 1
                }
            ]
        },
        {
            "name" : "Plane.001",
            "primitives" : [
                {
                    "attributes" : {
                        "POSITION" : 12,
                        "NORMAL" : 13,
                        "TEXCOORD_0" : 14
                    },
                    "indices" : 15,
                    "material" : 0
                },
                {
                    "attributes" : {
                        "POSITION" : 16,
                        "NORMAL" : 17,
                        "TEXCOORD_0" : 18
                    },
                    "indices" : 19,
                    "material" : 1
                }
            ]
        },
        {
            "name" : "Plane.002",
            "primitives" : [
                {
                    "attributes" : {
                        "POSITION" : 20,
                        "NORMAL" : 21,
                        "TEXCOORD_0" : 22
                    },
                    "indices" : 23,
                    "material" : 0
                },
                {
                    "attributes" : {
                        "POSITION" : 24,
                        "NORMAL" : 25,
                        "TEXCOORD_0" : 26
                    },
                    "indices" : 27,
                    "material" : 1
                }
            ]
        },
        {
            "name" : "Plane.003",
            "primitives" : [
                {
                    "attributes" : {
                        "POSITION" : 28,
                        "NORMAL" : 29,
                        "TEXCOORD_0" : 30
                    },
                    "indices" : 31,
                    "material" : 2
                }
            ]
        }
    ],
    "accessors" : [
        {
            "bufferView" : 0,
            "componentType" : 5126,
            "count" : 771,
            "max" : [
                1,
                15.65081787109375,
                1
            ],
            "min" : [
                -1,
                -1,
                -1
            ],
            "type" : "VEC3"
        },
        {
            "bufferView" : 1,
            "componentType" : 5126,
            "count" : 771,
            "type" : "VEC3"
        },
        {
            "bufferView" : 2,
            "componentType" : 5126,
            "count" : 771,
            "type" : "VEC2"
        },
        {
            "bufferView" : 3,
            "componentType" : 5123,
            "count" : 1158,
            "type" : "SCALAR"
        },
        {
            "bufferView" : 4,
            "componentType" : 5126,
            "count" : 68,
            "max" : [
                0.3801041841506958,
                15.518357276916504,
                0.3801041841506958
            ],
            "min" : [
                -0.3801041841506958,
                15.518357276916504,
                -0.3801041841506958
            ],
            "type" : "VEC3"
        },
        {
            "bufferView" : 5,
            "componentType" : 5126,
            "count" : 68,
            "type" : "VEC3"
        },
        {
            "bufferView" : 6,
            "componentType" : 5126,
            "count" : 68,
            "type" : "VEC2"
        },
        {
            "bufferView" : 7,
            "componentType" : 5123,
            "count" : 198,
            "type" : "SCALAR"
        },
        {
            "bufferView" : 8,
            "componentType" : 5126,
            "count" : 24,
            "max" : [
                0.8683289885520935,
                5.105712890625,
                0.8683289885520935
            ],
            "min" : [
                -0.8683289885520935,
                -3.9241019322844295e-09,
                -0.8683289885520935
            ],
            "type" : "VEC3"
        },
        {
            "bufferView" : 9,
            "componentType" : 5126,
            "count" : 24,
            "type" : "VEC3"
        },
        {
            "bufferView" : 10,
            "componentType" : 5126,
            "count" : 24,
            "type" : "VEC2"
        },
        {
            "bufferView" : 11,
            "componentType" : 5123,
            "count" : 36,
            "type" : "SCALAR"
        },
        {
            "bufferView" : 12,
            "componentType" : 5126,
            "count" : 579,
            "max" : [
                0.8683289885520935,
                5.425310134887695,
                0.8683289885520935
            ],
            "min" : [
                -0.8683289885520935,
                -0.7638397216796875,
                -0.8683289885520935
            ],
            "type" : "VEC3"
        },
        {
            "bufferView" : 13,
            "componentType" : 5126,
            "count" : 579,
            "type" : "VEC3"
        },
        {
            "bufferView" : 14,
            "componentType" : 5126,
            "count" : 579,
            "type" : "VEC2"
        },
        {
            "bufferView" : 15,
            "componentType" : 5123,
            "count" : 1140,
            "type" : "SCALAR"
        },
        {
            "bufferView" : 16,
            "componentType" : 5126,
            "count" : 80,
            "max" : [
                0.7055204510688782,
                5.3292107582092285,
                0.6202349662780762
            ],
            "min" : [
                -0.2086867094039917,
                0.9131753444671631,
                -0.620235025882721
            ],
            "type" : "VEC3"
        },
        {
            "bufferView" : 17,
            "componentType" : 5126,
            "count" : 80,
            "type" : "VEC3"
        },
        {
            "bufferView" : 18,
            "componentType" : 5126,
            "count" : 80,
            "type" : "VEC2"
        },
        {
            "bufferView" : 19,
            "componentType" : 5123,
            "count" : 180,
            "type" : "SCALAR"
        },
        {
            "bufferView" : 20,
            "componentType" : 5126,
            "count" : 939,
            "max" : [
                0.8683289885520935,
                4.819662570953369,
                1.1994218826293945
            ],
            "min" : [
                -0.8683289885520935,
                -0.7699995040893555,
                -0.8683289885520935
            ],
            "type" : "VEC3"
        },
        {
            "bufferView" : 21,
            "componentType" : 5126,
            "count" : 939,
            "type" : "VEC3"
        },
        {
            "bufferView" : 22,
            "componentType" : 5126,
            "count" : 939,
            "type" : "VEC2"
        },
        {
            "bufferView" : 23,
            "componentType" : 5123,
            "count" : 1806,
            "type" : "SCALAR"
        },
        {
            "bufferView" : 24,
            "componentType" : 5126,
            "count" : 124,
            "max" : [
                0.7817407250404358,
                4.608036994934082,
                1.139756202697754
            ],
            "min" : [
                -0.679726243019104,
                -0.37820765376091003,
                -0.6213429570198059
            ],
            "type" : "VEC3"
        },
        {
            "bufferView" : 25,
            "componentType" : 5126,
            "count" : 124,
            "type" : "VEC3"
        },
        {
            "bufferView" : 26,
            "componentType" : 5126,
            "count" : 124,
            "type" : "VEC2"
        },
        {
            "bufferView" : 27,
            "componentType" : 5123,
            "count" : 162,
            "type" : "SCALAR"
        },
        {
            "bufferView" : 28,
            "componentType" : 5126,
            "count" : 104,
            "max" : [
                4.344415664672852,
                0,
                1
            ],
            "min" : [
                -1,
                -1.7358524799346924,
                -1
            ],
            "type" : "VEC3"
        },
        {
            "bufferView" : 29,
            "componentType" : 5126,
            "count" : 104,
            "type" : "VEC3"
        },
        {
            "bufferView" : 30,
            "componentType" : 5126,
            "count" : 104,
            "type" : "VEC2"
        },
        {
            "bufferView" : 31,
            "componentType" : 5123,
            "count" : 204,
            "type" : "SCALAR"
        }
    ],
    "bufferViews" : [
        {
            "buffer" : 0,
            "byteLength" : 9252,
            "byteOffset" : 0
        },
        {
            "buffer" : 0,
            "byteLength" : 9252,
            "byteOffset" : 9252
        },
        {
            "buffer" : 0,
            "byteLength" : 6168,
            "byteOffset" : 18504
        },
        {
            "buffer" : 0,
            "byteLength" : 2316,
            "byteOffset" : 24672
        },
        {
            "buffer" : 0,
            "byteLength" : 816,
            "byteOffset" : 26988
        },
        {
            "buffer" : 0,
            "byteLength" : 816,
            "byteOffset" : 27804
        },
        {
            "buffer" : 0,
            "byteLength" : 544,
            "byteOffset" : 28620
        },
        {
            "buffer" : 0,
            "byteLength" : 396,
            "byteOffset" : 29164
        },
        {
            "buffer" : 0,
            "byteLength" : 288,
            "byteOffset" : 29560
        },
        {
            "buffer" : 0,
            "byteLength" : 288,
            "byteOffset" : 29848
        },
        {
            "buffer" : 0,
            "byteLength" : 192,
            "byteOffset" : 30136
        },
        {
            "buffer" : 0,
            "byteLength" : 72,
            "byteOffset" : 30328
        },
        {
            "buffer" : 0,
            "byteLength" : 6948,
            "byteOffset" : 30400
        },
        {
            "buffer" : 0,
            "byteLength" : 6948,
            "byteOffset" : 37348
        },
        {
            "buffer" : 0,
            "byteLength" : 4632,
            "byteOffset" : 44296
        },
        {
            "buffer" : 0,
            "byteLength" : 2280,
            "byteOffset" : 48928
        },
        {
            "buffer" : 0,
            "byteLength" : 960,
            "byteOffset" : 51208
        },
        {
            "buffer" : 0,
            "byteLength" : 960,
            "byteOffset" : 52168
        },
        {
            "buffer" : 0,
            "byteLength" : 640,
            "byteOffset" : 53128
        },
        {
            "buffer" : 0,
            "byteLength" : 360,
            "byteOffset" : 53768
        },
        {
            "buffer" : 0,
            "byteLength" : 11268,
            "byteOffset" : 54128
        },
        {
            "buffer" : 0,
            "byteLength" : 11268,
            "byteOffset" : 65396
        },
        {
            "buffer" : 0,
            "byteLength" : 7512,
            "byteOffset" : 76664
        },
        {
            "buffer" : 0,
            "byteLength" : 3612,
            "byteOffset" : 84176
        },
        {
            "buffer" : 0,
            "byteLength" : 1488,
            "byteOffset" : 87788
        },
        {
            "buffer" : 0,
            "byteLength" : 1488,
            "byteOffset" : 89276
        },
        {
            "buffer" : 0,
            "byteLength" : 992,
            "byteOffset" : 90764
        },
        {
            "buffer" : 0,
            "byteLength" : 324,
            "byteOffset" : 91756
        },
        {
            "buffer" : 0,
            "byteLength" : 1248,
            "byteOffset" : 92080
        },
        {
            "buffer" : 0,
            "byteLength" : 1248,
            "byteOffset" : 93328
        },
        {
            "buffer" : 0,
            "byteLength" : 832,
            "byteOffset" : 94576
        },
        {
            "buffer" : 0,
            "byteLength" : 408,
            "byteOffset" : 95408
        }
    ],
    "buffers" : [
        {
            "byteLength" : 95816,
            "uri" : "data:application/octet-stream;base64,"
        }
    ]
}
